<svg xmlns="http://www.w3.org/2000/svg" xml:space="preserve" viewBox="0 0 197.4 40.5"><defs><path id="a" d="M-99.3 112.1h659.8v304.4H-99.3z"/></defs><path fill="#452b2e" d="M25 4.8c-.6-.1-.9.6-.6 1.1.6 1.6 1.5 3.2 1.7 5a18 18 0 0 1-.7 8.4c-.6 2-1.8 3.9-2.7 5.8 0 .8.4 1.5.6 2.3.3.6.4 1.4.6 2 .4.5 1 .9 1.7 1 1-.2 1.4-1.1 2.2-1.6.9-.6 2.2-1.1 2.4-2.3.7-3 1.6-5.7 1.9-8.6 0-1.5 0-3-.5-4.5-.9-2.3-1.7-4.8-2.9-7-.6-.8-1.6-1-2.5-1.4-.4-.1-.8-.3-1.2-.2z" paint-order="stroke fill markers"/><path fill="#452b2e" d="M18.5 4c-1.2 0-2.4.2-3.4 1-.7.5-1.2 1.5-.6 2.2.6.8 1.6 1 2.5 1.2.7.2 1-.7 1.2-1.1.3-.6.5-1.6 1.4-1.7.7 0 1.1.6 1.6 1 .5 1 .2 2 .1 2.9-.1 1.1-.9 2.3-.3 3.4 1.2 3 .6 6.5-.4 9.5-.2.6-.5 1.4.2 1.8.7.5 1.7.2 2-.6 1-2 1.6-4.2 2.2-6.3.5-2.1.3-4.3 0-6.4-.3-2.2-1.4-4.2-2.8-5.8-.5-.6-1.2-1-2-1h-1.7zm14.7 6.7c-.7.2-.5 1-.4 1.6.5 1.5.9 3.2.7 4.8-.3 2.5-.8 4.8-1.4 7.2-.2 1-.8 1.8-.7 2.8.2.9 1.2 1.2 1.9 1.6.5.3 1.2.3 1.5-.3 1-1.7 1.5-3.6 2-5.5.3-1.3.2-2.5.2-3.8-.7-2.6-1.4-5.2-2.8-7.5-.2-.4-.5-.9-1-.9z" paint-order="stroke fill markers"/><path fill="#604b4f" d="M12.6 8.8c-1.3 0-2.4 1-3.5 1.7-1 .8-2.3 1.7-2.9 3.1-.2.6 0 1.5.6 1.6.6 0 1.3.5 1.1 1.1-.1.4-.4.8-.8.5-.5-.1-1.3-.6-1.7 0-.3.8.2 1.7.5 2.4.6 1.7 2 3 3.5 4 2 1.2 4.5 1.4 6.9 1.3.6 0 1.3.1 1.7-.5a8 8 0 0 0 2.6-5.4c-.1-1.5-.2-3-.6-4.6-1-2-2.9-3.3-4.8-4.4a5 5 0 0 0-2.6-.8zm1.7 9.5c.3 0 .3.6.4 1 .1.5-.7 1.2-1.2.7-.4-.4 0-1 .2-1.4 0-.3.3-.3.6-.3z" paint-order="stroke fill markers"/><path fill="#332327" d="M12.2 5.4c-.5 0-1.1.6-1.1 1.2.1.8 1.2.7 1.5.2.4-.4.6-1.3-.1-1.4h-.3zm7.3 2.7c-.6.3-.7 1-.8 1.6 0 .7 1 .8 1.2.3.4-.5.6-1.5 0-1.8-.2-.1-.3-.1-.4 0z" paint-order="stroke fill markers"/><path fill="#452b2e" d="M11.4 24.8c-.7 0-1.4.8-1 1.4.5.5 1.2.3 1.8.6.9.2 1.8 0 2.6-.5.3-.6-.4-1-1-1l-2.4-.5z" paint-order="stroke fill markers"/><path fill="#8d6142" d="M3.9 20.2a3 3 0 0 0-1.3 2.3c0 1.2 1 2 2.1 2.4 1 .2 1.9.8 2.9.6.6-.3 1-1.3.4-1.7l-2.6-2.9c-.4-.4-1-1-1.5-.7zm15.5 4.6c-1.3 0-2.8.7-3 2-.1.8-.1 1.7.6 2.3a4 4 0 0 0 3.2 1.1c1 0 2-1 2-2a5 5 0 0 0-1.1-3c-.5-.4-1.2-.4-1.7-.4zm10.9 3.9c-1.7 0-3.1 1.8-2.6 3.4.2 1 .9 1.7 1.7 2 1 .4 2 0 2.8-.5 1-.7 1.4-2.2 1.1-3.3-.5-1.2-1.9-1.6-3-1.6z" paint-order="stroke fill markers"/><path fill="#110c0c" d="M17.3 32.6a9 9 0 0 1-2.3-1.5c-.7-.7-1.7-1.4-3-2a8.1 8.1 0 0 0-4.3-1c-1.9 0-2.6-.1-4-.8-1.5-.6-2-1-2.6-1.8-.5-.5-1-1.4-1-1.9-.2-.6 0-1.3.8-3.7.9-2.4 1-3 .8-4-.1-1.2-.1-1.3 1.2-3.8 1-1.8 1.7-2.9 2.6-3.8C6.3 7.6 7 6.9 7 6.7l1-.6c.7-.2 1.4-.8 2-1.6.4-.7 1.2-1.5 1.7-1.7.4-.3 1-.8 1.5-1A14.2 14.2 0 0 1 19.7 0c1.2 0 3 .5 5.7 1.3a21.6 21.6 0 0 1 8.5 4L36 8.1a29.8 29.8 0 0 1 4.3 9.9 18.7 18.7 0 0 1-1.6 9.9 26.6 26.6 0 0 1-2.6 5.8c-.7 1-1.5 2-2 2.3-.4.3-1.3.6-2 .8-1 .3-1.7.2-4.2-.5l-3-.7-.7-1.2a4 4 0 0 0-1.3-1.3h-1.2a9.9 9.9 0 0 1-4.5-.4zm1.8-2.8 1.5-.1a3 3 0 0 0 1-.9c.3-.5.3-.9 0-1.8-.3-.6-.7-1.3-1-1.5l-1.3-.2c-.6 0-1.3.3-1.7.5-.5.4-.7.7-.8 1.5 0 .8 0 1.1.7 1.6.4.4 1.1.8 1.6.9zm10.6 4c.3 0 1 0 1.7-.3.8-.3 1-.6 1.4-1.4.2-.6.2-1.3 0-1.7-.1-.5-.5-.8-1.3-1a3 3 0 0 0-1.8-.2c-.5.2-1 .6-1.3 1A2 2 0 0 0 28 32l.6 1.2 1 .6zm-24-9.1c1.5.5 1.7.5 2 0 .2-.4.1-.6-.5-1a8.4 8.4 0 0 1-1.6-1.8c-.5-.7-1-1.2-1.3-1.3-.4 0-.6.2-1 1s-.3 1 0 1.7c.5.7.8.9 2.3 1.4zM11 26c.2 0 .8.1 1.1.3h1.5l.8-.4-1.4-.3-1.8-.3c-.2 0-.4.2-.5.4-.1.2 0 .3.3.3zm14 3.8h.7c.2 0 .5-.3.7-.5.2-.3 1-.9 1.7-1.3 1.1-.6 1.4-1 1.5-1.5l.8-3.3a51.8 51.8 0 0 0 1.2-6.8l-.3-2.2a91.8 91.8 0 0 0-3.2-7.8 8 8 0 0 0-1.7-.8c-.8-.3-1.6-.5-1.7-.4-.2.2 0 1 .6 1.8.5.9 1 2.4 1.1 3.5.2 1 .3 2.5.3 3.3a22.4 22.4 0 0 1-2.5 9.2L23 25.2l.6 1.8c.3 1 .6 1.8.5 2l.3.4.7.4zm-13.6-6.2a15.7 15.7 0 0 0 5.8.4 8.4 8.4 0 0 0 2.4-3.5A7 7 0 0 0 20 17l-.4-2.7c0-.3-.4-.9-.8-1.4l-2.2-2c-.9-.6-2-1.2-2.6-1.4-.6-.2-1.4-.3-2-.2A15 15 0 0 0 7 13l-.4 1.3c0 .3.2.4.5.4s.8.3 1 .5c.2.2.4.7.3 1 0 .3-.2.7-.5 1-.3.3-.6.3-1.2 0s-.9-.3-1-.1l.5 1.7 1.1 2L9 22.3c.7.6 1.5 1 2.6 1.3zm2.2-3c-.4-.1-.7-.4-.8-.6v-1.2l.8-1 1 .1.5 1c0 .7 0 1-.4 1.4-.4.3-.8.4-1.1.3zm7.6 3.3c.2.1.6 0 .9-.2.2-.2.8-1.7 1.5-3.7a16.2 16.2 0 0 0 1-8.6 11.5 11.5 0 0 0-2.4-5.5A4 4 0 0 0 21 4.7c-.3-.1-.8-.2-1.1-.1h-1.7c-.7-.1-1.5 0-2.2.4-.6.3-1.1.8-1.2 1v1l1.4.7 1.1.3.5-1.2c.3-.7.8-1.4 1.1-1.5.3-.2.8-.2 1.2-.1.3.1.8.5 1.2 1 .6.5.7.9.7 2 0 .9-.3 2-.5 2.6-.3.8-.3 1.3 0 1.8l.5 2.2a14.7 14.7 0 0 1-.7 7l-.5 1.7c0 .2.2.3.5.4zm12.4 4.5c.7.1.7 0 1.6-2.1.5-1.4 1-3.1 1.2-4.2V19a34 34 0 0 0-2.4-6.8c-.3-.6-.7-1-.9-1-.1 0 0 .8.3 1.8s.6 2.4.6 3.1c0 .8-.1 2-.3 2.8a462.7 462.7 0 0 0-1.6 6.7c-.5 1.5-.5 1.5.2 2l1.3.8zm-14-18.8c.1-.3.2-.7 0-1 0-.2-.2-.1-.3.3-.1.4-.2.8-.1 1 0 0 .2 0 .4-.3zm-8-3c.2.1.4 0 .6-.1.2-.2.2-.5.2-.6H12l-.4.5c0 .1 0 .2.2.3z"/><g style="white-space:pre;shape-inside:url(#a)" transform="translate(68.9 57.9) scale(.26458)"><path stroke="#fff" stroke-linejoin="round" stroke-width="22.7" d="m346.9-202.1 4.2 36.6a14.7 14.7 0 0 0-7.3-6c-2.5-.8-6.4-1.2-11.7-1.2-6.3.4-12.1 3.7-17.6 10a38 38 0 0 0-7.6 26.8c1.4 12.6 4 21.3 7.9 26 3.8 4.8 9 7.8 15.2 9.2 5.6 0 10.1-1.2 13.4-3.6a32 32 0 0 0 8.7-9.8l-2.6 13.4 21-1c-2.8-41-2.4-74.1 1-99.4zM2-202a14 14 0 0 0-4.4.7c-3 .8-5 3.1-6.3 7-1.2 4-.6 7.6 1.9 11.2a18 18 0 0 0 11 1.3C7-182.6 9-184 10-186s1.4-4.8 1-8.5c-.3-3.7-1.9-6-4.7-6.8-1.4-.5-2.8-.7-4.3-.7zm390.5 0a14 14 0 0 0-4.4.7c-3 .8-5 3.1-6.3 7-1.2 4-.6 7.6 1.9 11.2a18 18 0 0 0 11 1.3 9 9 0 0 0 5.8-4.2c1-2 1.4-4.8 1-8.5-.3-3.7-1.9-6-4.7-6.8-1.4-.5-2.8-.7-4.3-.7zm-349.8.4-23.1 2.1c2.4 31.9 2.3 64.7-.5 98.3l16.3 1 1.8-13.9c2.2 3.9 4.6 6.6 7.2 8 2.7 1.5 7.6 2.8 14.6 3.9 4.2-1 8.6-3 13.2-5.8 4.5-2.8 8-7.7 10.2-14.7 2.3-7 3.3-14.3 3.2-21.9a28.3 28.3 0 0 0-7.1-18.9c-4.6-5-11.6-8-21-8.7a20 20 0 0 0-9.3 0 23 23 0 0 0-8.6 6.9zm-127.9.5c3.5 28 3.2 61.7-1 101l28.9 1c-3.9-14.7-5.3-28-4.2-40l7.5-1c9.6 0 16.4-1 20.4-2.9 3.9-2 7.2-5.2 9.8-9.8 2.6-4.8 4-10.6 4-17.7 0-7.6-1.6-13.8-4.6-18.6-3-5-6.9-8.1-11.6-9.6-2.9-1-9.3-1.6-19.2-1.8zm22.6 19c5.7 0 9.8.3 12.4 1 2.6.7 4.5 1.8 5.5 3.2 1 1.4 1.4 4 1 7.8-.6 3.2-1.4 5.5-2.3 6.9a6.8 6.8 0 0 1-4.2 2.9c-2 .5-5.9.6-11.8.2.3-5.6.1-13-.6-22zm499 4.2-25.8 3.1 4.7 17.9c8-2.5 14.7-3.4 19.7-3 5.1.6 8.8 1.8 11 3.8 2.4 1.9 3.2 5.1 2.4 9.7a56.1 56.1 0 0 0-16.8-2.6c-5.6 1.4-10 3.1-13.4 5.2a27 27 0 0 0-8.1 8c-2.1 3-2.7 7.6-1.6 13.6a45 45 0 0 0 4.7 15c2.1 3.6 6.2 6.2 12.1 7.6 6.7.3 12-.8 15.8-3.4 3.8-2.7 6.6-4.8 8.4-6.6l3.2 13.7 21.5-14.2c-6.6-5.3-9.5-11-8.4-17.4l3.7-19.4c.3-10.5-.9-17.4-3.7-20.5a27.8 27.8 0 0 0-11-7.4 60.2 60.2 0 0 0-18.4-3.1zm-176 2.7c-8.6 0-16 3.2-22.4 9.9-6 7-9 17.1-9 30.5a87.9 87.9 0 0 0 8.2 18.6c2.3 3.4 5.2 6 8.7 8.2 3.5 2 7.2 3.7 11 4.7a28 28 0 0 0 12.1.5c4.3-.7 8.6-1.3 13.2-1.8a44 44 0 0 0 19-10.3l-9-13.6a45.9 45.9 0 0 1-25.8 9.4 25 25 0 0 1-10.2-3.4 19.4 19.4 0 0 1-6-9.2c14.3 2.8 24.5 2.2 30.7-1.8 6.1-4 10-9 11.8-14.7 1.8-5.8-.5-12.6-6.8-20.3a42 42 0 0 0-25.5-6.7zm-250.4.4-16.3 2.1c0 21-2 43.8-5.8 68.4H11a595 595 0 0 1-1-70.5zm151.7 0c2.8 30.5 2.8 63.1 0 97.8l25.7-.5a127.9 127.9 0 0 1-6.3-34.9c3 3.9 5.4 6 7.4 6.2 2 .2 6.1.3 12 .3a29.2 29.2 0 0 0 15-7.1c3.4-3.3 6-10.4 7.7-21.3.3-14.4-1.8-23.8-6.3-28.1a34 34 0 0 0-17.4-8.7c-6 .3-9.9 1-11.8 2.1-2 1-4.5 3-7.6 5.6v-10.2zm238.8 0-16.3 2.1c0 21-2 43.8-5.8 68.4h23.1a595 595 0 0 1-1-70.5zm-245.3 1.6-21.5 1a73.2 73.2 0 0 1 .2 29.7 191 191 0 0 1-4 14c-.6 2-1.4 3.7-2.3 4.7-.9 1-2.3 1.5-4.2 1.3-2-.2-3.7-1-5.5-2.3a7.8 7.8 0 0 1-2.9-5.8c-.2-2.5-.8-7-1.8-13.7-1-6.7-.2-15 2.6-25.2l-21 .5c1 14 1.5 28 1.5 42 .7 7 1.5 12 2.4 15 .9 3 3 5.5 6.3 7.4 3.3 2 7.6 3 12.9 3.4l11.3-3.7c2.3-.7 4.1-3.1 5.5-7.3l-2 12.6 22-.5c-2.5-26.7-2.3-51 .5-73.1zm105.4 13.5c5.7.1 8.7 2.6 9 7.5 0 6-3.5 9.2-10.5 9.7-7 .6-10.6-.6-10.8-3.4-.2-2.8.4-5.4 1.8-7.9 2.1-3.5 4.7-5.4 7.9-5.7l2.6-.2zm-208.4 4.4c3.5.7 6 2 7.6 4.2 1.6 2 2.2 6.5 1.8 13.1-.3 6.3-1.2 10.2-2.6 11.6a22.6 22.6 0 0 1-7.3 4.2c-2.5-.7-4.3-1.7-5.6-3a16 16 0 0 1-3.1-4.6 52 52 0 0 1-2.8-9.9 25 25 0 0 1 4.9-11.7c2-2 4.3-3.2 7-4zm284.1.5c3.9 0 6.6 1.5 8.2 4.5A36.5 36.5 0 0 1 346-126c-1 2.1-3.6 3.9-8.2 5.3-3.8 0-6.5-.7-7.9-1.9a13.3 13.3 0 0 1-3.4-5c-.9-2-1.1-5.6-.8-10.5.7-7.7 2-12.3 3.7-13.7 1.8-1.4 4-2.4 6.8-3.1zm-145.2 1c4.6.7 7.9 2.1 10 4.2 2.1 2.1 3.7 5.5 4.7 10-.3 4.2-1 7.1-2 8.7-1.1 1.6-3.2 3-6.4 4.5-6 0-9.6-.7-11-2.1-1.4-1.4-2.8-5-4.2-10.5.3-4.6 1-8 2-10.3 1.1-2.3 3.4-3.8 7-4.5zm244.7 20.5 5.8.6 4.2 2c1 4.6 1 7.9-.2 9.8-1.3 2-2.8 3-4.5 3.4-1.8.4-4.4.5-7.9.5-1-.7-2-1.4-2.9-2.3-.9-.9-1.7-3-2.4-6 .4-3.6 3-6.2 8-8z" aria-label="Pibupedia" font-family="D3 Streetism" font-size="133.3" paint-order="stroke fill markers" style="-inkscape-font-specification:'D3 Streetism'"/></g></svg>